<?xml version="1.0" standalone="no"?>
<!DOCTYPE svg PUBLIC "-//W3C//DTD SVG 20010904//EN"
 "http://www.w3.org/TR/2001/REC-SVG-20010904/DTD/svg10.dtd">
<svg version="1.0" xmlns="http://www.w3.org/2000/svg"
 width="412.000000pt" height="412.000000pt" viewBox="0 0 412.000000 412.000000"
 preserveAspectRatio="xMidYMid meet">
<metadata>
Created by potrace 1.14, written by Peter Selinger 2001-2017
</metadata>
<g transform="translate(0.000000,412.000000) scale(0.100000,-0.100000)"
fill="#000000" stroke="none">
<path d="M1364 4108 c-11 -17 -11 -212 0 -219 5 -4 5 -13 0 -20 -11 -18 -12
-151 -1 -166 6 -8 5 -13 -1 -13 -7 0 -8 -10 -2 -29 4 -16 6 -32 2 -35 -9 -10
-8 -210 2 -217 5 -4 5 -13 0 -20 -11 -18 -12 -151 -1 -166 6 -8 5 -13 -1 -13
-7 0 -8 -10 -2 -29 4 -16 6 -32 2 -35 -9 -10 -8 -210 2 -217 5 -4 5 -13 0 -20
-10 -17 -12 -59 -2 -65 5 -3 5 -10 1 -16 -9 -16 -10 -218 0 -218 12 0 -12 -41
-43 -75 -84 -91 -53 -244 60 -302 53 -26 102 -33 149 -21 31 9 45 2 230 -109
108 -64 208 -124 222 -133 15 -8 100 -59 190 -113 90 -54 173 -104 184 -110
58 -35 80 -54 83 -72 7 -39 72 -141 84 -130 2 2 3 -44 3 -103 0 -61 -4 -110
-10 -114 -7 -6 -7 -10 0 -15 14 -10 14 -216 0 -225 -7 -6 -7 -10 0 -15 14 -10
14 -216 0 -225 -7 -6 -7 -10 0 -15 14 -10 14 -216 0 -225 -7 -6 -7 -10 0 -15
14 -10 14 -216 0 -225 -7 -6 -7 -10 0 -15 13 -9 14 -98 2 -110 -5 -4 -148 -8
-318 -8 l-309 0 0 150 c0 148 1 150 26 174 40 39 58 81 58 142 0 171 -212 259
-350 146 l-38 -32 -306 0 -305 0 0 -280 c0 -154 -3 -285 -7 -290 -4 -7 -116
-10 -315 -10 l-308 0 0 223 c0 122 -4 222 -8 222 -5 0 -5 6 -1 12 11 17 11
108 1 108 -5 0 -5 6 -1 12 11 17 11 108 1 108 -5 0 -5 6 -1 12 11 17 11 108 1
108 -5 0 -5 6 0 12 9 16 8 101 -1 117 -4 6 -3 11 2 11 5 0 7 18 5 41 -4 35 -1
45 25 70 40 39 55 88 50 154 -8 101 -94 176 -202 178 -96 1 -167 -44 -201
-127 -30 -72 -12 -150 49 -214 l31 -33 0 -622 0 -622 563 -3 562 -2 1 62 c1
35 0 68 -1 73 -5 22 -3 85 2 91 4 3 2 19 -2 35 -5 17 -5 31 1 35 5 3 7 10 3
15 -8 14 -9 103 0 117 4 7 2 12 -5 12 -8 0 -8 4 -1 13 5 6 7 20 3 30 -4 10 -5
35 -3 57 l4 40 185 0 c177 0 186 -1 212 -22 l26 -23 0 -265 0 -265 563 -3 562
-2 0 773 0 774 24 22 c126 118 44 334 -132 346 -25 1 -58 -1 -74 -6 -25 -7
-73 19 -463 252 -258 154 -435 266 -435 274 0 8 0 17 0 20 1 14 -33 67 -57 92
l-28 27 -1 645 c0 356 1 651 3 656 2 7 108 10 306 9 166 -1 307 -2 314 -3 7 0
11 -18 9 -47 -1 -25 1 -47 6 -50 5 -3 5 -11 1 -17 -10 -16 -10 -77 0 -77 4 0
5 -5 1 -12 -4 -6 -8 -30 -8 -52 -1 -31 -9 -49 -32 -73 -72 -74 -69 -191 6
-270 75 -80 223 -81 303 -1 l23 23 307 0 c302 -1 307 0 308 20 0 11 1 140 2
287 0 181 4 268 11 271 6 2 148 3 316 3 l305 -1 0 -500 1 -499 -27 -31 c-60
-68 -76 -145 -47 -216 70 -166 314 -171 388 -7 34 75 21 154 -35 213 l-34 36
2 610 c1 400 -1 609 -8 609 -5 0 -3 5 5 10 10 6 -182 10 -552 10 -447 0 -568
-3 -569 -12 0 -7 -1 -138 -1 -290 l-1 -278 -187 0 -187 0 -24 26 -24 26 0 261
-1 262 -556 3 c-426 2 -558 -1 -564 -10z"/>
</g>
</svg>
